Six months after the rage virus was inflicted on the population of Great Britain, the US Army helps to secure a small area of London for the survivors to repopulate and start again. But not everything goes to plan.





I don't ask for a comment saying "Thanks!", all I ask is that you seed to help others enjoy the film!





SCREENSHOTS:  
http://image.bayimg.com/fa68a347f17c415d0dbcc3da2567bd1995271e89.jpg 
http://image.bayimg.com/6e532a2ebae1add30ef5c0673b41226ac943682b.jpg 
http://image.bayimg.com/3d4953b7d15f8483f3da09b6fd9a371898e33f86.jpg 
http://image.bayimg.com/f42718a5b2949b1f0078302ba97e49d5126adc05.jpg 
http://image.bayimg.com/e99012327829a9236482155387e358b8d0f0d76f.jpg 
http://image.bayimg.com/90f855e2ddb1722bcd938dfdfe7c7d12f9e29081.jpg 
http://image.bayimg.com/4a2bd972d8e35266f704fc1b500b36efd6e51369.jpg 
http://image.bayimg.com/84e98dcc8b2e78bd1d295725163a112162e58771.jpg





General
Format                         : MPEG-4
Format profile                 : Base Media / Version 2
Codec ID                       : mp42
File size                      : 1.02 GiB
Duration                       : 1h 40mn
Overall bit rate mode          : Variable
Overall bit rate               : 1 464 Kbps

Video
ID                             : 1
Format                         : AVC
Format/Info                    : Advanced Video Codec
Format profile                 : High@L4.0
Format settings, CABAC         : Yes
Format settings, ReFrames      : 6 frames
Codec ID                       : avc1
Codec ID/Info                  : Advanced Video Coding
Duration                       : 1h 40mn
Bit rate mode                  : Variable
Bit rate                       : 1 300 Kbps
Width                          : 1 280 pixels
Height                         : 694 pixels
Display aspect ratio           : 16:9
Frame rate mode                : Variable
Frame rate                     : 23.976 fps
Minimum frame rate             : 23.419 fps
Maximum frame rate             : 24.390 fps
Color space                    : YUV
Chroma subsampling             : 4:2:0
Bit depth                      : 8 bits
Scan type                      : Progressive
Bits/(Pixel*Frame)             : 0.061
Stream size                    : 930 MiB (89%)
Writing library                : x264 core 120

Audio
ID                             : 2
Format                         : AAC
Format/Info                    : Advanced Audio Codec
Format profile                 : LC
Codec ID                       : 40
Duration                       : 1h 40mn
Bit rate mode                  : Variable
Bit rate                       : 160 Kbps
Maximum bit rate               : 300 Kbps
Channel(s)                     : 2 channels
Channel positions              : Front: L R
Sampling rate                  : 48.0 KHz
Compression mode               : Lossy
Stream size                    : 114 MiB (11%)
Language                       : English





Please seed to keep this alive! Enjoy the film!